<svg xmlns="http://www.w3.org/2000/svg" viewBox="0 0 32 40" shape-rendering="crispEdges">
  <!-- Sheikah Slate inspired (BOTW original pixel art) -->
  <rect x="4" y="0" width="24" height="40" fill="#1a2838"/>
  <rect x="6" y="2" width="20" height="36" fill="#243448"/>
  <rect x="8" y="4" width="16" height="28" fill="#0a1520"/>
  <!-- Screen bezel glow -->
  <rect x="7" y="3" width="18" height="30" fill="none" stroke="#4a9eff" stroke-width="1" opacity="0.4"/>
  <!-- Eye symbol -->
  <rect x="14" y="10" width="4" height="2" fill="#ff8c32"/>
  <rect x="12" y="12" width="8" height="2" fill="#ff8c32"/>
  <rect x="13" y="14" width="6" height="2" fill="#ff6c12"/>
  <rect x="14" y="16" width="4" height="2" fill="#ff8c32"/>
  <rect x="15" y="18" width="2" height="2" fill="#ffcc66"/>
  <!-- Corner runes -->
  <rect x="8" y="6" width="2" height="2" fill="#4a9eff"/>
  <rect x="22" y="6" width="2" height="2" fill="#4a9eff"/>
  <rect x="8" y="28" width="2" height="2" fill="#4a9eff"/>
  <rect x="22" y="28" width="2" height="2" fill="#4a9eff"/>
  <!-- Side grips -->
  <rect x="4" y="12" width="2" height="8" fill="#3a4a5a"/>
  <rect x="26" y="12" width="2" height="8" fill="#3a4a5a"/>
  <!-- Bottom rune button -->
  <rect x="12" y="32" width="8" height="3" fill="#2a4a6a"/>
  <rect x="14" y="33" width="4" height="1" fill="#ff8c32" opacity="0.6"/>
</svg>